<?xml version="1.0" encoding="utf-8"?>
<!DOCTYPE svg PUBLIC "-//W3C//DTD SVG 1.1//EN" "http://www.w3.org/Graphics/SVG/1.1/DTD/svg11.dtd">
<svg version="1.1" id="Layer_1" xmlns="http://www.w3.org/2000/svg" xmlns:xlink="http://www.w3.org/1999/xlink" x="0px" y="0px"
	 viewBox="5.5 432.8 1989.1 734.4" enable-background="new 5.5 432.8 1989.1 734.4" xml:space="preserve">
<g id="_x23_ffffffff">
	<path fill="#FFFFFF" stroke="#FFFFFF" stroke-width="9.375000e-002" d="M885.5,549.4c14-2.6,28.8-2.4,42.1,3.1
		c13,6.3,25.1,14.3,37.7,21.2c9.2,4.7,18.5,9.7,28.8,11.5c8.6,1.8,17.9,0.8,25.5-3.7c2.7-1.3,4.6-3.9,7.4-4.8
		c-4.7,7.6-12.2,14-21.1,16c-9.7,1.8-19.5-0.7-28.4-4.3c-12.4-4.5-24.4-10.7-37.4-13.2c-12-1.5-24.6-1-36,3.3
		c-6.3,2.8-12.5,7.6-14.2,14.6c-2.7,9.1,3.6,20,13.1,21.5c7.7,1.6,14.7-3.4,20.1-8.3c7.3-7.1,17.5-12.3,27.9-10.1
		c11.2,2.2,20.6,9.5,31.8,11.7c8.3,1.5,16.7-1.6,23.3-6.5c2.6-1.6,4.4-4.6,7.5-5.2c-4.8,8.1-10.8,16-19.7,19.9
		c-7.2,3.1-15.3,3.5-23,2.2c-11.5-1.1-23.7-4.5-34.9,0c-11.2,4.5-17.7,15.5-22.7,25.9c-1.7-2.8-2.4-6.2-5.1-8.3
		c-6.2-5.3-15-4.2-22.3-2.7c-8.5,1.8-16.2,5.8-23.6,10.1c-0.8-7.8-4.9-14.6-8-21.6c7.7,1.7,15.7,3.6,23.6,2.1
		c1.6-0.5,3.3-1.1,4.3-2.6c0.9-3.9-2.7-6.7-5.4-8.9c-11.7-7.8-25.7-11.9-39.8-12.1c-6.4-5.1-13.9-11.1-22.7-9.2
		C832.9,570.1,857.9,554.6,885.5,549.4 M893.5,558.8c-2.2,0.5-5.1,0.9-5.9,3.3c-0.5,1.5,1.4,2.1,2.3,2.8c5.8,3.1,12.6,3.5,19.1,3.1
		c3-0.3,6.5-0.8,8.8-3.1c0.7-2.5-2.5-3.5-4.2-4.4C907.2,558.3,900.2,557.5,893.5,558.8 M869.5,564.8c-11,2.4-21,8.9-28,17.6
		c-2,2.6-4.3,7.4-0.5,9.6c5,2.2,10.4-0.3,15.2-1.8c8.5-3.8,16.7-9.2,21.9-17.1c1.1-2,2-4.7,0.8-6.8
		C876.4,563.8,872.6,564.2,869.5,564.8z"/>
	<path fill="#FFFFFF" stroke="#FFFFFF" stroke-width="9.375000e-002" d="M1026.5,585.6c6.1-5.4,14.3-8.5,22.4-7.9
		c5.6,0.1,10.8,2.1,16.1,3.8c-2.6,0.5-5.6-0.1-7.9,1.6c-1.8,1.2-1.7,3.8-0.7,5.5c3.7,6.3,10.2,10.1,16.7,13c5.5,2,11.8,4.4,17.6,2.2
		c3-1.5,2-5.2,0.5-7.4c3.4,2.8,7.3,5,11,7.4c1.3,1.2,3.1,0.5,4.7,0.4c9.5-0.9,19,0.2,28.1,2.9c1.4,0.5,3.4,0.4,4.1,2
		c-6,0.2-12-1.3-18-0.4c-3.1,0.3-6.1,0.4-9.2,0.8c5.3,4.3,11.8,6.8,17.9,9.7c6.5,2.2,13.2,4.5,20.2,4c3.5,0,6.8-1.4,10.3-1.7
		c-0.4,1.4-1.8,1.9-2.9,2.7c-9.9,6.2-21.7,10-33.4,8.2c-12.5-1.8-23.6-8.2-34.1-14.9c-10.8,5.1-19.7,13.4-30.1,19.3
		c-4.8,2.6-10.2,4.7-15.7,4.5c-8.8,0-16.5-4.9-23.2-10c-6,5.9-14,9.6-22.5,9.5c1.4-2.5,2.3-6.5-0.9-8c-7.8-4-16.8-0.8-24.9,0.6
		c-5-2.5-9.9-5-14.7-7.7l-0.5-0.8c11.7,1.8,23.8,3.4,35.5,0.4c5.3-1.2,10.2-3.6,14.9-6.4c-1.7-1.9-3.8-3.5-4.9-5.8
		c2.7,0.8,4.9,2.7,7.3,4.3c7.9-4.7,14.6-11.8,23.8-13.7c8.5-1.8,17.1,1,24.7,4.5c1.6,0.9,3.6,1.4,4.7,2.9c-8.2-0.6-16.8,0-24.1,4.3
		c-4.6,2.5-8.4,6.3-12.2,9.9c9.4,3,19.8,2.2,28.9-1.4c8.5-3.3,16.6-7.8,24.8-11.8c-13.3-8.6-29-17.2-45.3-13.4
		c-10.4,2.4-19.3,8.8-26.9,16c-0.3-0.4-0.7-0.7-1-1.1C1012.5,603.4,1017.8,593,1026.5,585.6z"/>
	<path fill="#FFFFFF" stroke="#FFFFFF" stroke-width="9.375000e-002" d="M775.6,613.8c5.7-1.3,12-1.2,17.3,1.6
		c3.5,1.5,6.5,4.7,6.6,8.7c0.1,3.3-2.1,6.2-4.7,7.9c-7.2,4.4-16.8,4.6-24.2,0.5c-3.9-2-6.8-6.7-5-11
		C767.1,617.2,771.6,615.2,775.6,613.8z"/>
	<path fill="#FFFFFF" stroke="#FFFFFF" stroke-width="9.375000e-002" d="M934.5,628.4c4.3-4,10.1-6.1,16-6.1
		c1.7,9.5,2.8,20.2,9.9,27.4c5,5,12.5,3.8,18.8,2.8c10.5-2.2,21-5.2,31.7-4.8c-0.2,1.9-2.4,1.8-3.7,2.5
		c-20.1,6.7-40.6,13.7-58.1,25.9c-5.8,4.5-11.7,9.2-16,15.3c-4.2-0.7-8.4-1.3-12.3-3.2l-0.1-1.3c3.6,0,8.4,0.7,10.5-2.9
		c1-3.8-2-7.1-4.4-9.6c-9-8.1-20.6-13.8-32.8-14.5c-2.6,0-6.1,0.4-7.2,3.2c-0.1,1.6,0,3.2,0.1,4.8c-6.9-5.8-13.8-11.5-20.8-17.3
		c6.1-3.7,12.6-7,19.8-8c7.6-1.3,16.2,0.1,21.9,5.5c2.3,2.6,4.3,5.4,5.3,8.8C919.5,646.9,925.7,636.5,934.5,628.4z"/>
	<path fill="#FFFFFF" stroke="#FFFFFF" stroke-width="9.375000e-002" d="M1051.7,662.3c12.5-3,25.6-3.8,38.4-2.8
		c8.3,0.8,16.7,2.1,24.4,5.2c0.1,0.1,0.4,0.4,0.5,0.6c-3.2,1.1-6.4,3.3-7.4,6.8c-1.4,4,0.6,8,1.7,11.8c-14.5-6.6-32.4-4.4-45.1,5.2
		C1060,680.1,1055.8,671.2,1051.7,662.3z"/>
	<path fill="#FFFFFF" stroke="#FFFFFF" stroke-width="9.375000e-002" d="M1575.1,669.1c17.7-8.1,37.5-10.6,56.8-9.8
		c0,1.6-1.8,1.3-2.8,1.6c-18.3,2.4-36.1,10-49.4,22.8c-12.6,11.1-20.6,26.8-34.6,36.4c-9.6,6.7-21.8,8-33.1,6.6
		c-10.3-1.5-20.3-4.3-30-7.8c-1.8-0.9-4.5-0.7-5.3-2.9c8.7,1.5,17.9,2.3,26.4-0.5c5.2-1,9.8-3.7,14.5-5.9c-0.5,2.6,0.6,5.8,3.6,6.1
		c7.8,0.9,15.2-3.1,21.8-6.8c5.1-3.4,10-7.4,13.3-12.7c1.1-2,2.3-4.9,0.5-6.9c-2.8-2.5-7-1.3-10.3-1.1c0.4-1.4,1.6-2.1,2.7-2.9
		C1557.1,678.9,1565.7,673.3,1575.1,669.1z"/>
	<path fill="#FFFFFF" stroke="#FFFFFF" stroke-width="9.375000e-002" d="M1011.7,682.7c6.4-4.8,10.6-11.6,15.3-17.9
		c-4,12.3-9.2,24.8-18.8,33.9c-5.7-1.4-11.8-1.5-17.3,0.9c-1.6,0.7-2.8,1.9-3.5,3.5c1.4,2.5,4.3,3,6.6,4.4c-5.1,1.2-10,3-15,4.2
		c-7.6,1.9-14.4,9.1-13.4,17.3c0,2.4,2.7,5.6,5.2,3.8c4.4-2.4,6.5-7.3,8.8-11.4c3.4-4.2,8.9-6.3,14.1-7c9.4-0.6,19.2,0.5,28.2-3
		c3.8-0.9,6.7-3.5,10.1-5.3c-5.8,8.6-16.5,11.3-26.1,12.6c-5.4,1.1-11.8,1.2-15.4,5.9c-3.5,4.1-0.5,10.6-4.9,14.2
		c-6.3,5.2-15.5,2.9-22.4,6.7c-1.8,1.2-1.8,3.4-1.7,5.4c-2.4-3.2-5.3-5.9-7.2-9.4c-3.2-5.3-4.3-11.5-5.5-17.5
		c-0.6-3.5-2.9-6.8-1.4-10.4c3.9-12,16.2-19.2,28.3-20.3C988.4,693.2,1001.6,690.5,1011.7,682.7z"/>
	<path fill="#FFFFFF" stroke="#FFFFFF" stroke-width="9.375000e-002" d="M1616.9,675.6c8-3,17-3.4,25-0.3
		c10.3,3.4,19.1,9.9,29.1,13.8c8.2,3.8,18,4.1,26.2,0.1c1.6-0.6,3.1-1.9,5-1.6c-0.4,1.9-2.4,2.6-3.7,3.8c-7.5,5.7-15.5,11-24.5,14.1
		c-9.3,3.6-19.6,4.1-29.2,2.1c-4.6-1-9.2-2.1-13.9-3c4.2-3.9,9.1-7.4,11.7-12.7c0.7-1.7,1.3-4.1-0.3-5.5c-2.1-1.8-5.1-1.5-7.6-1.2
		c-9.5,2-18.1,7-25.1,13.6c-1.8,1.8-3,4.3-5.2,5.6c-20.4,6.3-35.2,22.5-49.5,37.5c-2.3-0.7-0.3-2.3,0.2-3.3
		c10.5-15.5,21.5-30.9,34.7-44.2C1597.9,686.6,1606.6,679.4,1616.9,675.6z"/>
	<path fill="#FFFFFF" stroke="#FFFFFF" stroke-width="9.375000e-002" d="M1141.3,685.9c1.2-5.1,7-6.8,11.5-7.3
		c20.4,4.5,39.5,13.6,57.2,24.5c4.7,3.1,9.3,6.3,14,9.3c-0.6,2.5-1.3,5.1-2.5,7.4c-3.3-5.8-9.1-9.7-15.1-12.4
		c-6.3-2.7-13.3-4.1-20.1-2.6c-4.1,1-8.3,3.8-9.1,8.2c-1,4.8,1.4,9.5,4.5,13.1c-9.6-3.1-18.9-6.8-28.4-10.3
		c-1.5-6.6-5.4-12.3-10.1-17.1C1142.2,694.5,1140.6,690.2,1141.3,685.9z"/>
	<path fill="#FFFFFF" stroke="#FFFFFF" stroke-width="9.375000e-002" d="M1087.4,697.6c7.9-2.1,16.6-1,23.6,3.2
		c10,5.8,16.1,17.7,14.8,29.2c-1,12.2-10.1,23.3-21.9,26.5c-10.5,3.3-22-0.3-30.4-7c-5.8-4.7-9.2-12.1-9.2-19.5
		c0.2-7.2,1.9-14.6,6.1-20.5C1074.6,703.7,1080.7,699.5,1087.4,697.6 M1082.4,707.6c-9.9,3-17.1,13.1-16.4,23.5
		c0.2,11.7,10.4,22,22,22.5c11.2,1,22.2-7.3,24.5-18.2c2-8.4-1.1-17.8-7.7-23.3C1098.9,706.9,1090.1,705.1,1082.4,707.6z"/>
	<path fill="#FFFFFF" stroke="#FFFFFF" stroke-width="9.375000e-002" d="M1290,702.1c0.4,0,1.3,0,1.7,0.1
		c10.1,12.5,20.5,25.3,34.5,33.6c7.8,4.7,16.8,7.3,25.9,6.9c13.2-0.4,25.7-5.7,38.9-6.2c10.8-0.6,21.7,2.1,31.1,7.4
		c5.8,2.6,10.6,6.8,15.7,10.4c0.1,0.4,0.2,1.3,0.3,1.7c-4.3-1-8-3.6-12.3-4.8c-9.5-3.4-19.9-5.4-29.9-3.5
		c-5.3,0.9-10.2,3.1-14.9,5.5c0.2-2.3-0.4-5-3-5.4c-6.4-1-12.8,1.1-18.6,3.6c-6.5,2.8-12.6,6.6-17.5,11.7
		c-8.7-4.6-15.4-12-21.9-19.2c-6.9-8.8-14.1-17.4-20.2-26.8C1296.7,712.1,1292.6,707.5,1290,702.1z"/>
	<path fill="#FFFFFF" stroke="#FFFFFF" stroke-width="9.375000e-002" d="M1546,730.6c9.1-4.6,18.8-10.4,22.7-20.3
		c0.3,2.1-1.3,3.7-2,5.6c-2.9,6.8-8.4,12.3-14.5,16.4c-12.2,7.8-26.2,12.1-40.2,15.2c-5.3,1-10.5,3.1-16,2.8
		c-5.8,0.3-12.4,1.9-15.8,7c-3.6,5.6-0.1,14.6,6.8,15.1c4.6,0.3,7.9-3.4,11.1-6.2c10-8.8,21.8-16.9,35.5-18.2
		c7.4-0.5,14.9-0.8,22.3,0.5c-5.6-0.9-11,1.4-16.2,3.2c-9.8,3.6-17.7,10.7-24.1,18.8c-6.2,7.8-10.3,17-14.4,26
		c-8.3-4.1-17.9-5.2-27-3.7c-10.2,0.8-20,4.2-29.5,8c-6.7,3.1-13.7,6.2-19.3,11.1c0.8-9,5.4-17.1,9.7-24.8
		c10.3-16.7,24.6-31.6,42.8-39.5c8.5-3.9,17.9-5,27.2-6C1519.1,739.8,1533.1,736.5,1546,730.6z"/>
	<path fill="#FFFFFF" stroke="#FFFFFF" stroke-width="9.375000e-002" d="M1013.6,754.6c8.3-3.6,12.4-12.7,20.5-16.6
		c3-0.9,6.5-0.3,8.8,2.1c4.3,4.2,7.2,9.5,10.1,14.8c-5.6-4.9-13.8-7.4-20.9-4.6c-5.1,1.5-10.4,5.8-9.9,11.6
		c-0.4,6.3,5.6,12,11.8,11.6c7.4-1.7,14.4-5.5,22.1-5.7c6.2,0.3,10.7,4.7,14.6,9c-4.2-3-10.4-5.4-15.1-2.1c-2.3,1.7-2.7,4.6-2.5,7.3
		c-0.3,4.8,2.4,9.9,6.9,11.8c4,1.9,8.6,0.8,12.6-0.4c5.3-2.1,10.3-5,14.3-9c-5.3,6.2-10.2,13.3-18.1,16.4
		c-5.8,2.6-12.7,1.6-18.1-1.5c-9.9-4.6-17.2-13-26.4-18.8c-5.3-2.9-12.9-4.5-17.6,0.3c-4.1,3.7-4.1,9.7-3.2,14.8
		c1.8,2.6,4.2,5.1,7.5,5.6c7,1.5,14.9-1.5,21.3,2.7c4,2.7,6.9,6.9,9.3,11c-0.9,0-1.6-0.3-2.1-1.1c-0.9-3.3-4.6-4.6-7.7-5
		c-6.9-0.3-11.7,5.4-18,7.1c-8,2.8-17.1,0.3-22.8-5.8c-9.1-7.3-13.6-19-23.1-25.9c1.6-3.9,0.7-8.3,0.4-12.4
		c6.6-6.4,15.9-8.1,24.5-9.8c3.4-0.7,8.1-1.9,8.3-6.1C1005.4,755.7,1009.8,756.5,1013.6,754.6z"/>
	<path fill="#FFFFFF" stroke="#FFFFFF" stroke-width="9.375000e-002" d="M1137.3,766.3c4.9-5.9,6.9-13.4,8.3-20.8
		c17.2,6.3,34.5,12.3,51.7,18.5c-3.6,3.7-7.3,7.7-8.6,12.8c-2.6,8,2.4,16.6-1.3,24.5c-3.2,8.3-11.7,12.1-18.9,16.2
		c-4.4,10.1-8.8,20.2-13.1,30.4c-4.5-7.4-9.5-14.7-16-20.4c-2.3-2.2-5-3.8-7.3-6c8.6-1,16.9-4.5,24-9.5c5.6-4.1,10.7-9.4,13.1-16
		c1.8-4.7,1.3-10.4-2.1-14.3c-4.2-4.8-10.9-6.3-17-6.5c-13.3,0-26.3,5.7-36,14.7c-0.1-4.3-0.2-8.6-0.3-12.9
		C1122.5,776.7,1131.7,773.5,1137.3,766.3z"/>
	<path fill="#FFFFFF" stroke="#FFFFFF" stroke-width="9.375000e-002" d="M1363,756.8c3.7-1.6,8.5-3.7,12.1-0.9
		c2.1,2.1,1.7,5.3,1.7,8c8.5-6.6,19.5-9,30.2-8.3c13.2,0.6,26,5,37.8,10.8c0,0.3,0,1,0,1.3c-10.6-3.9-23.3-4.1-33,2.2
		c-13.2-4.8-29.4-3.8-40.4,5.4c-3.9,3.3-6.6,8.9-4.5,13.9c2.7,6.4,9.8,9.5,16.2,10.8c11.8,2.1,24.8-0.3,34-8.3
		c2.9,1.1,5.8,2.3,8.9,3c-6,12.9-10.6,27.8-6.4,41.9c-12.3,1.1-24.9-0.8-36.3-5.7c-24.4-10.6-42.6-32.3-68.3-40.5
		c7.5-1.1,15.9,0.6,22.5-4.1c4.3-2.9,4.8-8.7,4.2-13.5C1347.4,766,1355.1,761,1363,756.8z"/>
	<path fill="#FFFFFF" stroke="#FFFFFF" stroke-width="9.375000e-002" d="M1620.6,810.7c19.6-2.8,40.1,3.6,54.7,17
		c14.5,13.1,22.8,32.7,21.9,52.2c-0.5,20-10.7,39.5-26.7,51.5c-14.2,10.8-32.7,15.6-50.3,12.9c-19.9-2.7-38.1-15-48.3-32.2
		c-11.1-18.2-12.5-41.8-4-61.3C1576.9,829.4,1597.6,813.7,1620.6,810.7 M1604.7,844.6c-15.6,12.3-22.7,34.3-16.9,53.4
		c-3.7-14.1,3.5-30.1,16.7-36.5c11.1-5.8,25.6-4.2,35.1,4c8.1,6.6,12.5,17.3,11.4,27.6c-1,12.8-10.6,24.4-23,27.8
		c-12.1,3.7-26.2-0.8-33.9-10.8c-2.2-2.2-2.5-5.4-4.3-7.9c-0.8,0.6-0.4,2.1,0.2,2.9c2.1,2.1,3.1,5,4.7,7.4
		c4.8,6.5,10.7,12.6,18,16.2c17.2,10.1,40.4,8,55.8-4.5c12.5-9.7,20.3-25.4,19.8-41.3c-0.2-18.6-11.7-36.5-28.4-44.6
		C1642.3,829.2,1619.6,831.9,1604.7,844.6z"/>
	<path fill="#FFFFFF" stroke="#FFFFFF" stroke-width="9.375000e-002" d="M395.5,843.7c8.8-3.3,19.3,3.9,19.6,13.2
		c0.9,8.8-7.4,16.9-16.1,15.9c-8-0.4-14.5-8.1-13.7-16C385.5,851,389.8,845.5,395.5,843.7 M396.5,846.7c-3.7,1.1-6.7,4.2-7.7,7.9
		c-2.1,6.4,2.4,13.9,9.1,15c7,1.6,14.4-4.5,14.1-11.6C412.2,850.3,403.8,844.1,396.5,846.7z"/>
	<path fill="#FFFFFF" stroke="#FFFFFF" stroke-width="9.375000e-002" d="M398.4,849.5c5.4-2.5,12.5,1.5,12.8,7.5
		c0.9,5.7-4.6,11.1-10.3,10.2c-4.9-0.5-8.8-5.3-8.1-10.2C393.1,853.7,395.4,850.8,398.4,849.5z"/>
	<path fill="#FFFFFF" stroke="#FFFFFF" stroke-width="9.375000e-002" d="M1463.7,876.1c18.5-5.1,36.9-10.4,55.3-16
		c-2.2,8.8-5.7,17.6-5.5,26.8c0,11.8,5.7,22.7,12.6,31.9c-17.7-0.6-35.4-1.5-53.1-2c-1.7-2.1-2.1-5.3-3.2-7.8
		C1466.5,898.4,1464.1,887.3,1463.7,876.1z"/>
	<path fill="#FFFFFF" stroke="#FFFFFF" stroke-width="9.375000e-002" d="M1057.6,872.6c3.7-5,8.9-8.6,14.3-11.4
		c-7.1,5-12.7,12.3-15,20.8c-4.9,16.2,3.3,35,18.4,42.6c17.1,9.6,41.1,2.2,49.5-15.5c-5.1,16.5-22.6,28-39.8,26.3
		c-10.8-0.7-21.1-6.3-27.6-14.9C1046.5,907.1,1046.6,886,1057.6,872.6z"/>
	<path fill="#FFFFFF" stroke="#FFFFFF" stroke-width="9.375000e-002" d="M1085.5,863.7c13.2-3.5,28.1,3.8,33.5,16.4
		c3.7,8.3,3.2,18.5-1.5,26.3c-4.6,8-13.2,13.6-22.5,14.3c-10.9,1.1-22.2-4.6-27.6-14.2c-5.8-9.6-5.2-22.5,1.4-31.6
		C1072.9,869.4,1078.9,865.4,1085.5,863.7 M1097.2,871.3c-7,1.6-12.7,7.6-13.8,14.7c-1.3,7.1,2.1,14.7,8.2,18.4
		c6.2,4,14.9,3.6,20.8-1c6.4-4.8,8.8-13.9,5.7-21.3C1114.9,874,1105.6,869.2,1097.2,871.3z"/>
	<path fill="#FFFFFF" stroke="#FFFFFF" stroke-width="9.375000e-002" d="M354.1,864.2c8.7,0,17.7,2.6,24.1,8.7
		c2.2,2.3,3.8,5.7,2.8,8.9c-1.3,3.7-4.9,5.8-8.5,6.8c-8.7,1.9-18.2,0.5-25.9-4.1c-3.5-2.2-6.9-5.3-7.7-9.5c-0.5-3.3,1.4-6.5,4.2-8.1
		C346.3,864.8,350.3,864.6,354.1,864.2z"/>
	<path fill="#FFFFFF" stroke="#FFFFFF" stroke-width="9.375000e-002" d="M446.5,865.7c3.8-1.7,7.9,0.7,10.4,3.5
		c7.2,9.3,9.9,22.8,4.9,33.6c-1.7,3.5-5.8,6.3-9.7,4.8c-4.5-1.4-7-5.8-9.2-9.6c-3.5-7.9-4.6-16.9-2.2-25.2
		C441.7,869.8,443.5,866.9,446.5,865.7z"/>
	<path fill="#FFFFFF" stroke="#FFFFFF" stroke-width="9.375000e-002" d="M403.5,888.7c2.9-0.9,6.6-1.2,9.1,0.9
		c2.9,2.6,2.9,7,1.9,10.5c-3,9.1-9.3,17.1-17.5,22.1c-3.8,2.1-8.4,4.1-12.7,2.6c-4.4-1.7-4.9-7.3-3.7-11.1
		C384.1,902.4,392.7,892.9,403.5,888.7z"/>
	<path fill="#FFFFFF" stroke="#FFFFFF" stroke-width="9.375000e-002" d="M1290.5,893.6c11.3-3.3,24.2,3,28.8,13.8
		c3.6,8.2,2.2,18.4-3.6,25.3c-5.2,6.4-13.7,9.8-21.8,8.7c-8.3-0.9-15.8-6.4-19.2-14c-4.2-8.9-2.4-20.2,4.6-27.3
		C1282.3,897.1,1286.3,894.8,1290.5,893.6 M1287.4,900.6c-7.8,2.9-13.1,11.2-12.3,19.5c0.4,7.5,5.7,14.5,12.9,16.9
		c6.5,2.3,14.2,0.8,19.3-3.8c6.2-5.4,8.3-14.9,4.9-22.3C1308.3,901.6,1296.7,896.8,1287.4,900.6z"/>
	<path fill="#FFFFFF" stroke="#FFFFFF" stroke-width="9.375000e-002" d="M1340.4,976.6c5.1-1.2,11.1-2,15.5,1.5
		c3.3,2.4,3.6,7.2,1.7,10.6c-4.4,7.5-13.1,12.1-21.7,12.5c-4,0.3-8.5-0.8-10.9-4.2c-2.3-3.3-1.3-7.8,1.2-10.7
		C1329.6,981.4,1334.9,978.3,1340.4,976.6z"/>
</g>
<g id="_x23_000000ff">
	<path stroke="#000000" stroke-width="9.375000e-002" d="M859.5,520.1c17.5-8.7,36.8-14.7,56.5-14.1c-0.1,8.6-0.1,17.2,0,25.8
		c-15.2-1.9-30.8-0.7-45.2,4.6c-12.4,4.6-24,11.3-35,18.6c-12.9,8.8-25.5,18-38.1,27.1c-7.3-2.6-14.4-5.6-21.7-8.3
		c0-0.3,0-0.9,0-1.2C803.3,554.3,829.8,534.4,859.5,520.1z"/>
	<path stroke="#000000" stroke-width="9.375000e-002" d="M916.8,506.4c14.1,2,28.2,4.5,42.3,6.6c0.1,2.8,0.3,5.5,0.5,8.3
		c-4.3,5.4-8.5,10.8-12.9,16.1c-2-2.8-2.5-6.5-4.4-9.4c-1.6-0.1-3.1-0.3-4.7-0.5c2.1,9.1,10,15.3,12.6,24.1
		c1.4,4.4,1.3,9.2,1.1,13.8c3,5,8.1,8.5,10.5,13.7c-9.3-1.8-17.9-6.7-27.5-6.4c0.8-3.6,1.1-7.2,2.1-10.7c1.9,0.5,3.9,0.9,5.9,1.1
		c0-4.7-1.7-10.2-6.5-11.9c-5.6-1.6-11.6-1.6-17.1-3.8C923.3,534,918.1,520,916.8,506.4z"/>
	<path stroke="#000000" stroke-width="9.375000e-002" d="M962.9,514c13.4,3.7,26.9,9.9,41.1,7.7c2.8,2.5,5.2,5.8,5.2,9.7
		c0.2,4-1.4,7.7-2.4,11.5c-3.7-1.4-7.3-2.9-11.1-4.3c4.9,2.5,9.9,4.9,15,6.9c-2.5,5.7-6.9,10.4-10,15.8c0.8,0.4,1.6,0.7,2.5,1.1
		c1.3-3.8,3.1-7.6,6.5-10c3.7-2.6,8.8-1.7,12.3,0.7c3.9,5,1.9,11.8-1,16.8c-3.5,5.6-7.4,10.9-12,15.7c-6.8-6.3-13.6-12.6-20.6-18.7
		c-12.1-11.2-26.1-21.1-42.1-25.4c4.3-6.9,9.3-13.4,14.2-19.8c0.7,0.4,2.2,1.2,2.9,1.6C963.1,520,963,517,962.9,514z"/>
	<path stroke="#000000" stroke-width="9.375000e-002" d="M659.6,558.5c0.3-1.7,0.6-3.5,0.9-5.2c12.3-1.6,25.3,0.7,35.6,7.6
		c7.7,4.5,14.2,10.9,20.8,16.8c-18.3,17.8-35.1,37-53.5,54.6c-13.9-0.7-27.7,2-41.5,2.8c3-3,5.7-6.5,8.8-9.4
		c4.9,0.7,8.5-3.4,11.4-6.8c10-13.7,16.6-29.8,19.5-46.4C662.2,567.8,662.5,562.5,659.6,558.5z"/>
	<path stroke="#000000" stroke-width="9.375000e-002" d="M803,584.6c13.3-13.3,28-27,46.9-31.4c-0.8,2.2-1.9,4.6-1.5,7
		c0.1,2.6,2.2,4.3,3.9,6c-6,11.5-18.9,16.3-29.1,23.3c-0.8,3.7-2.5,7.6-6.2,9.1c-4.2,1.4-8.8,1.4-13.2,1.6c0,7.1,0,14.3,0,21.4
		c12.1-8.6,23.4-18.3,35.7-26.6c6.1-4.4,13-7.6,20.3-9.4c15.4-5.1,31.8-6.2,48-6c29.4,0.8,58.5,6.5,87,13.6
		c43.9,11.1,86.7,26.1,129,42.2c35.4,14.6,71.2,29,104.3,48.5c18.2,10.9,35.9,23,50.7,38.3c2,1.9,3.7,4.7,6.8,4.9
		c18.1,3.8,31.8,17.2,44.7,29.6c6.1,5.7,12.1,11.9,19.9,15.2c4.4,1.8,9.4,1.7,13.9,0.1c12.1-3.7,24.9-6,37.6-4.6
		c8.1,1.2,16.1,3.5,23.2,7.8c5.6,3.3,10.9,7.3,16.3,11c11.6-13.2,23.2-26.3,34.8-39.6c27.3-30.3,65.2-51.5,105.9-56.3
		c27.4-3.4,55.6,0.7,81.2,11c16.6,6.3,31.9,15.5,46.4,25.5c8.8,6.4,17.3,13.3,24.8,21.3c5,5.9,10.8,11.3,14.7,18.1
		c-9.9-6.8-21.1-12.1-32.9-14.6c-8.5-1.7-17.6-2-25.9,0.9c-5.5,1.9-10.6,5.6-13.4,10.8c-2.8,5-3.3,11.1-2.3,16.7
		c-19.7-11.9-44-15.2-66.5-10.8c-18.4,3.7-36,11.2-51.5,21.8c-11.3,7.5-22.4,15.4-32.1,24.9c-7.2,7.4-14.3,16.2-15.3,27
		c-9.3-0.6-19.1-0.3-27.7,3.8c-10.8,4.7-18,14.6-27.6,20.9c-15.7,3.9-31.5,7.5-47.2,11.2c-9.9,3.1-20.3-0.6-29.5-4.3
		c-23-10.5-41.1-28.7-62.6-41.6c-1.4-1-3.1-1.6-3.9-3c-9.9-16.7-19.5-33.7-30.8-49.5c-11.4-17-25.3-32.5-41.3-45.4
		c-16.6-13.3-35.5-23.5-55.4-30.8c-44.9-16-93.6-23.5-140.9-16.1c-38.3,5.8-75.5,23-102.5,51.2c-25-5.5-48.6-17.6-67.2-35.2
		c-7.2-6.9-13.9-14.3-20.1-22.1c-5.8-7.2-11.1-14.8-18-20.9c-9-9.1-19.4-17.7-32.1-20.7c-6-1.5-12.1-0.4-18.1,0.3
		c8.7,4.4,18.6,8.3,23.9,17c3.7,5.8,3,13.2,0.5,19.3c12,7.5,24.5,14.3,36.7,21.6c5.8,2.9,10.4,7.5,15.4,11.5
		c31.3,27.9,56.3,62.1,78.1,97.8c21.6,36.2,39.6,74.6,53.5,114.5c6.8,18.6,12,37.7,17.3,56.8c14.1,13.9,29.2,27.2,47.2,35.8
		c11.4,5.4,24,8.8,36.7,7.3c15.2-1.2,28.6-10.3,38.6-21.3c4.1-4.5,7.7-9.5,11.1-14.6c2.3,9.1,4.2,18.4,8.3,27
		c4.4,10.2,11.8,18.9,21.1,24.9c-51.1-0.6-102.2,1-153.2-1.4c-26-1.6-52.1-3.4-77.8-7.9c-22.1-3.8-44.1-8.6-65.3-15.9
		c13,0.3,26.1,0.4,39.2-0.7c12.8-0.7,25.7-2.9,37.4-8.5c8.4-4.1,15.9-10.6,20-19.2c3.5-6.5,4.6-13.9,5.3-21.1
		c-6.2-7-11.8-14.5-16.1-22.8c-6.2-10.9-9.9-23-14.2-34.7c-6.7-20.5-13.4-41.1-22-60.9c-12.7-29.2-30.2-56.2-50.4-80.8
		c-13.6-18.8-30.2-35.4-48.6-49.5c-21.3-16.2-45.3-29.6-71.4-36.2c-13.4-3.5-27.3-4.3-41.1-3.5c3.2,3.3,7.2,5.9,10.4,9.3
		c-4.1,4.2-8.4,8.3-12.5,12.6c-8-4.4-15.9-8.9-23.8-13.6c17.6-10.5,36.8-18.1,54.3-28.7c25.3-14.1,47.6-35.6,58.1-63.1
		C801.1,589.2,801.8,586.8,803,584.6 M885.3,586.7c-27.6,5.2-52.6,20.7-71.2,41.5c8.8-1.9,16.3,4.1,22.7,9.2
		c14,0.2,28.1,4.3,39.8,12.1c2.7,2.2,6.3,4.9,5.4,8.9c-0.9,1.5-2.7,2.1-4.3,2.6c-7.9,1.5-15.9-0.4-23.6-2.1c3.2,7,7.3,13.8,8,21.6
		c7.4-4.3,15.2-8.3,23.6-10.1c7.3-1.6,16.2-2.6,22.3,2.7c2.7,2.1,3.4,5.5,5.1,8.3c5-10.4,11.5-21.3,22.7-25.9
		c11.2-4.5,23.4-1.1,34.9,0c7.7,1.3,15.8,0.9,23-2.2c8.8-3.9,14.9-11.8,19.7-19.9c-3,0.6-4.9,3.6-7.5,5.2c-6.6,4.8-15,8-23.3,6.5
		c-11.2-2.1-20.6-9.5-31.8-11.7c-10.4-2.1-20.6,3.1-27.9,10.1c-5.5,4.9-12.4,9.8-20.1,8.3c-9.5-1.5-15.8-12.4-13.1-21.5
		c1.7-7,7.8-11.8,14.2-14.6c11.4-4.4,24-4.8,36-3.3c13.1,2.5,25,8.7,37.4,13.2c8.9,3.6,18.8,6.1,28.4,4.3c8.9-2,16.3-8.4,21.1-16
		c-2.8,1-4.7,3.5-7.4,4.8c-7.6,4.5-16.9,5.5-25.5,3.7c-10.3-1.8-19.5-6.8-28.8-11.5c-12.6-7-24.7-14.9-37.7-21.2
		C914.1,584.4,899.2,584.2,885.3,586.7 M1026.3,622.9c-8.7,7.4-14,17.8-18.9,28c0.3,0.4,0.6,0.7,1,1.1c7.6-7.2,16.5-13.6,26.9-16
		c16.4-3.8,32.1,4.8,45.3,13.4c-8.2,4.1-16.2,8.5-24.8,11.8c-9.1,3.6-19.5,4.4-28.9,1.4c3.8-3.6,7.6-7.4,12.2-9.9
		c7.3-4.3,15.9-4.9,24.1-4.3c-1.1-1.5-3.1-2-4.7-2.9c-7.7-3.5-16.3-6.4-24.7-4.5c-9.2,1.9-16,9-23.8,13.7c-2.3-1.5-4.5-3.5-7.3-4.3
		c1.1,2.3,3.2,3.9,4.9,5.8c-4.7,2.7-9.6,5.2-14.9,6.4c-11.7,3-23.8,1.4-35.5-0.4l0.5,0.8c4.8,2.8,9.7,5.2,14.7,7.7
		c8-1.5,17.1-4.6,24.9-0.6c3.1,1.5,2.3,5.5,0.9,8c8.5,0.2,16.5-3.6,22.5-9.5c6.7,5.2,14.5,10,23.2,10c5.5,0.2,10.9-1.9,15.7-4.5
		c10.4-5.9,19.3-14.1,30.1-19.3c10.4,6.7,21.6,13.1,34.1,14.9c11.7,1.8,23.6-2,33.4-8.2c1.1-0.8,2.5-1.3,2.9-2.7
		c-3.5,0.3-6.8,1.7-10.3,1.7c-7,0.5-13.7-1.7-20.2-4c-6.1-2.9-12.6-5.4-17.9-9.7c3-0.4,6.1-0.5,9.2-0.8c6-0.8,12,0.6,18,0.4
		c-0.7-1.7-2.7-1.5-4.1-2c-9.1-2.7-18.7-3.8-28.1-2.9c-1.6,0.1-3.3,0.8-4.7-0.4c-3.7-2.4-7.6-4.6-11-7.4c1.5,2.2,2.5,6-0.5,7.4
		c-5.8,2.2-12.1-0.2-17.6-2.2c-6.4-2.9-13-6.7-16.7-13c-1-1.7-1.1-4.3,0.7-5.5c2.3-1.7,5.3-1.1,7.9-1.6c-5.3-1.7-10.5-3.7-16.1-3.8
		C1040.5,614.5,1032.4,617.6,1026.3,622.9 M775.3,651.1c-4,1.4-8.5,3.4-10,7.7c-1.8,4.3,1.1,9,5,11c7.4,4.1,17,4,24.2-0.5
		c2.6-1.7,4.8-4.6,4.7-7.9c-0.1-3.9-3.2-7.2-6.6-8.7C787.4,649.9,781.1,649.8,775.3,651.1 M934.3,665.7c-8.8,8.1-15,18.5-21.4,28.5
		c-1-3.3-3-6.2-5.3-8.8c-5.8-5.5-14.3-6.8-21.9-5.5c-7.2,1-13.7,4.3-19.8,8c6.9,5.7,13.9,11.5,20.8,17.3c-0.1-1.6-0.2-3.2-0.1-4.8
		c1.1-2.8,4.6-3.2,7.2-3.2c12.2,0.7,23.8,6.4,32.8,14.5c2.4,2.5,5.4,5.8,4.4,9.6c-2.1,3.6-7,3-10.5,2.9l0.1,1.3
		c3.8,1.8,8.1,2.5,12.3,3.2c4.3-6.1,10.1-10.8,16-15.3c17.6-12.2,38-19.2,58.1-25.9c1.3-0.7,3.5-0.6,3.7-2.5
		c-10.8-0.3-21.3,2.7-31.7,4.8c-6.3,1-13.8,2.2-18.8-2.8c-7-7.3-8.2-17.9-9.9-27.4C944.4,659.7,938.6,661.7,934.3,665.7
		 M1574.8,706.4c-9.3,4.2-17.9,9.8-26,16c-1,0.8-2.3,1.6-2.7,2.9c3.4-0.1,7.5-1.4,10.3,1.1c1.8,2,0.6,4.9-0.5,6.9
		c-3.3,5.2-8.2,9.2-13.3,12.7c-6.6,3.7-14,7.8-21.8,6.8c-3-0.3-4.1-3.5-3.6-6.1c-4.7,2.3-9.3,4.9-14.5,5.9
		c-8.6,2.8-17.7,1.9-26.4,0.5c0.8,2.2,3.5,2,5.3,2.9c9.7,3.6,19.8,6.3,30,7.8c11.3,1.5,23.5,0.2,33.1-6.6c14-9.6,22-25.3,34.6-36.4
		c13.4-12.8,31.2-20.4,49.4-22.8c1-0.3,2.9,0,2.8-1.6C1612.3,695.8,1592.5,698.3,1574.8,706.4 M1616.7,712.9
		c-10.4,3.8-19,11.1-26.8,18.6c-13.3,13.3-24.2,28.7-34.7,44.2c-0.5,1-2.6,2.7-0.2,3.3c14.3-14.9,29.1-31.2,49.5-37.5
		c2.2-1.3,3.3-3.8,5.2-5.6c7-6.5,15.6-11.6,25.1-13.6c2.5-0.3,5.5-0.6,7.6,1.2c1.6,1.4,1,3.8,0.3,5.5c-2.7,5.3-7.5,8.8-11.7,12.7
		c4.6,0.9,9.2,2,13.9,3c9.7,2,20,1.5,29.2-2.1c9-3.1,17-8.3,24.5-14.1c1.3-1.2,3.4-1.9,3.7-3.8c-1.9-0.4-3.4,1-5,1.6
		c-8.2,3.9-18,3.6-26.2-0.1c-10-4-18.9-10.5-29.1-13.8C1633.7,709.5,1624.7,709.9,1616.7,712.9 M1289.8,739.4c2.6,5.4,6.7,10,9.8,15
		c6.1,9.4,13.2,18,20.2,26.8c6.4,7.3,13.2,14.7,21.9,19.2c4.9-5.1,11-8.9,17.5-11.7c5.8-2.5,12.2-4.6,18.6-3.6
		c2.7,0.4,3.2,3.1,3,5.4c4.7-2.4,9.6-4.6,14.9-5.5c10.1-2,20.4,0,29.9,3.5c4.2,1.3,7.9,3.8,12.3,4.8c-0.1-0.4-0.2-1.3-0.3-1.7
		c-5.1-3.6-10-7.8-15.7-10.4c-9.4-5.3-20.3-8-31.1-7.4c-13.2,0.5-25.7,5.8-38.9,6.2c-9.1,0.4-18.2-2.2-25.9-6.9
		c-14-8.3-24.4-21.1-34.5-33.6C1291,739.5,1290.2,739.5,1289.8,739.4 M1545.7,767.9c-12.9,5.9-26.9,9.2-40.9,11.1
		c-9.2,1-18.6,2-27.2,6c-18.2,7.9-32.6,22.7-42.8,39.5c-4.4,7.7-9,15.8-9.7,24.8c5.6-5,12.6-8,19.3-11.1c9.5-3.8,19.3-7.2,29.5-8
		c9.1-1.5,18.7-0.4,27,3.7c4.1-9,8.2-18.2,14.4-26c6.4-8,14.4-15.1,24.1-18.8c5.2-1.8,10.6-4.1,16.2-3.2c-7.3-1.3-14.9-1-22.3-0.5
		c-13.7,1.3-25.4,9.3-35.5,18.2c-3.2,2.8-6.5,6.5-11.1,6.2c-7-0.6-10.5-9.5-6.8-15.1c3.4-5.2,10-6.7,15.8-7c5.5,0.3,10.7-1.8,16-2.8
		c14-3.1,28.1-7.4,40.2-15.2c6.1-4.1,11.6-9.6,14.5-16.4c0.6-1.9,2.3-3.5,2-5.6C1564.5,757.6,1554.8,763.3,1545.7,767.9
		 M1362.7,794.1c-7.9,4.2-15.6,9.2-21.4,16.1c0.6,4.8,0.2,10.5-4.2,13.5c-6.6,4.7-15,3.1-22.5,4.1c25.6,8.2,43.9,29.8,68.3,40.5
		c11.4,4.9,24,6.8,36.3,5.7c-4.2-14.1,0.4-29,6.4-41.9c-3.1-0.7-6-1.9-8.9-3c-9.2,8-22.2,10.4-34,8.3c-6.4-1.3-13.5-4.4-16.2-10.8
		c-2.1-5,0.6-10.6,4.5-13.9c11.1-9.3,27.3-10.3,40.4-5.4c9.8-6.3,22.4-6.1,33-2.2c0-0.3,0-1,0-1.3c-11.8-5.8-24.5-10.2-37.8-10.8
		c-10.6-0.7-21.6,1.7-30.2,8.3c0-2.7,0.3-5.9-1.7-8C1371.2,790.4,1366.4,792.6,1362.7,794.1z"/>
	<path stroke="#000000" stroke-width="9.375000e-002" d="M654.1,561.5c1.1-0.9,3.5-1.4,3.9,0.6c2.1,6.4-0.4,13.1-1.6,19.4
		c-2.7,9.5-6.5,18.7-11.3,27.2c-3.3,4.8-6.1,10.6-11.4,13.5c-1.4,1-3,0.1-3.2-1.4c-1.8-6.5,0.6-13,1.8-19.4
		c2.7-9.4,6.5-18.5,11.4-27.1C646.8,569.8,649.4,564.6,654.1,561.5z"/>
	<path stroke="#000000" stroke-width="9.375000e-002" d="M743.7,565c7.3-2.6,15.3-3,22.8-1.4c2.2,6,5.5,12.2,11.3,15.5
		c5.4,2.9,11.6,4.1,16.9,7.1c-6.2,17.6-17.8,33.1-32.7,44.3c-7.4,6.5-15.8,11.6-24,17c-32.6,19.8-66.5,37.5-98.2,58.8
		c-10.5,6.6-20.6,13.9-30.6,21.2c-14.3,9.9-27.6,21.2-41.4,31.9c-50.8,42.3-96.8,90.1-138.9,141c1.4-7.3,0.2-15.1-3.9-21.3
		c-4.9-7.9-13.9-13.3-23.3-13.4c-8.5-0.3-16.5,3.1-23.5,7.4c11.6-17.4,25.1-33.6,40.9-47.4c13.8-12.5,28.9-23.3,44.2-33.7
		c36.3-24.2,72.9-47.9,107.1-75c22-17.2,43.3-35.3,63.8-54.3c14.6-13,28.2-27,42.3-40.5c11.5-11.9,22.9-23.9,34.3-35.8
		C720,577,731.1,569,743.7,565z"/>
	<path stroke="#000000" stroke-width="9.375000e-002" d="M893.3,596.1c6.7-1.2,13.7-0.4,20.1,1.8c1.7,0.9,4.9,1.9,4.2,4.4
		c-2.3,2.3-5.7,2.8-8.8,3.1c-6.5,0.3-13.3,0-19.1-3.1c-1-0.7-2.8-1.3-2.3-2.8C888.2,597,891.1,596.5,893.3,596.1z"/>
	<path stroke="#000000" stroke-width="9.375000e-002" d="M869.3,602.1c3.1-0.6,6.9-0.9,9.3,1.5c1.2,2.1,0.3,4.8-0.8,6.8
		c-5.2,7.9-13.3,13.4-21.9,17.1c-4.8,1.6-10.2,4.1-15.2,1.8c-3.8-2.1-1.5-7,0.5-9.6C848.2,611,858.3,604.5,869.3,602.1z"/>
	<path stroke="#000000" stroke-width="9.375000e-002" d="M392.6,660.5c15.9,1.3,31.5,4.8,47.1,7.9c43.5,9.7,86.5,25.1,122.9,51.3
		c0.5,1.2-1.3,1.7-1.9,2.4c-6.7,4.9-13.5,9.9-20.1,14.9c-33.6-27.6-75.5-43-117.9-50.4c1.9-2,4.3-3.7,4.9-6.5c0.4-3.1-2-5.7-4.5-7.3
		C413.8,667,402.9,664.4,392.6,660.5z"/>
	<path stroke="#000000" stroke-width="9.375000e-002" d="M1032.9,695.3c17.9-5,37.1-6,55.8-5.1c15.7,0.7,31.2,4.3,45.9,9.9
		c-5.3,2.6-12.1,4.3-14.6,10.3c-2.7,7.4,2,14.5,3.5,21.6c-15-10.1-36.2-13.1-51.8-2.8c-4.7,3-8.6,7.1-12.2,11.3
		c-6.4-9.7-11.9-20.1-18-30C1038.7,705.4,1035.3,700.5,1032.9,695.3 M1051.5,699.6c4.1,8.9,8.3,17.8,12.5,26.7
		c12.6-9.6,30.6-11.8,45.1-5.2c-1.1-3.8-3-7.8-1.7-11.8c1-3.4,4.2-5.6,7.4-6.8c-0.1-0.1-0.4-0.4-0.5-0.6c-7.7-3.2-16.1-4.4-24.4-5.2
		C1077,695.8,1064,696.7,1051.5,699.6z"/>
	<path stroke="#000000" stroke-width="9.375000e-002" d="M986.8,710.5c12.4-6.5,25.4-13.9,39.8-13.5c10.7,15.4,21.2,31.1,30.8,47.2
		c-1.3,3.7-2.7,7.4-3.3,11.3c-32.4,13.4-64.8,27.1-97.2,40.4c-4-2.1-6.5-5.9-8.7-9.7c-5.2-10.2-8.1-21.6-9.7-32.9
		c-0.9-3.4,1.7-6.1,3.7-8.5C955,731,970.7,720.1,986.8,710.5 M1011.4,720c-10.1,7.8-23.2,10.5-35.8,10.5
		c-12.1,1.1-24.4,8.3-28.3,20.3c-1.5,3.5,0.9,6.9,1.4,10.4c1.2,6,2.3,12.2,5.5,17.5c1.9,3.5,4.8,6.3,7.2,9.4c0-1.9-0.1-4.2,1.7-5.4
		c6.9-3.8,16-1.5,22.4-6.7c4.3-3.6,1.4-10.1,4.9-14.2c3.6-4.8,10.1-4.8,15.4-5.9c9.7-1.3,20.3-4,26.1-12.6
		c-3.4,1.7-6.4,4.3-10.1,5.3c-9,3.4-18.8,2.3-28.2,3c-5.3,0.7-10.7,2.8-14.1,7c-2.4,4.2-4.5,9-8.8,11.4c-2.5,1.8-5.2-1.4-5.2-3.8
		c-1-8.2,5.8-15.4,13.4-17.3c5.1-1.2,10-3,15-4.2c-2.3-1.5-5.2-1.9-6.6-4.4c0.7-1.5,1.9-2.8,3.5-3.5c5.4-2.4,11.6-2.3,17.3-0.9
		c9.5-9.1,14.8-21.5,18.8-33.9C1022,708.4,1017.8,715.3,1011.4,720z"/>
	<path stroke="#000000" stroke-width="9.375000e-002" d="M286,735.6c46.5-33.6,108.3-45.3,163.7-30c28.7,7.3,55.4,21.6,77.9,40.7
		c-9.9,7.2-20.2,13.7-30.1,20.7c-10.7-6.6-21.6-13.1-33.5-17.1c-45.4-17.2-99.3-9.8-138.3,19.2c-31.1,22.4-52.9,57.4-59,95.3
		c-6.6,38.5,2.9,79.6,26,111.1c20.6,28.7,51.8,49.6,86.3,57.5c24.2,5.7,49.9,5.1,73.8-1.6c41.1-11.3,76.5-41.4,94.2-80.1
		c21-44.1,17.9-98.7-8.1-140c-2.8-5.3-6.7-9.8-10.1-14.6c8.3-7.7,16.7-15.2,25.2-22.7c29,36.1,44.1,83.1,42.1,129.3
		c-2,50.6-24.5,100.1-61.6,134.7c-25.4,24.2-57.5,41.1-91.7,48.8c-34.8,8-71.9,5.9-105.7-5.6c-32.5-10.9-62.1-30.7-84.6-56.5
		c-5.8-6-10.3-13.1-15.4-19.7c-4.6-7.5-9.5-14.8-13.1-22.9c-23.3-46.3-26.9-102-9.6-150.8C227.5,792.9,252.9,759,286,735.6z"/>
	<path stroke="#000000" stroke-width="9.375000e-002" d="M1124.5,711.1c3.4-5.5,10.1-7.2,16.1-8.2c37,8.2,70.9,26.4,101.5,48.3
		c-3.2,8.7-4.8,18.1-9.2,26.3c-2.9,5.6-9.3,9.8-15.7,8.2c-25.6-9.4-51.3-18.6-76.8-28.1c-2.1-8.7-6.6-16.7-13.1-22.9
		c-1.9-1.6-1.9-4.2-2.6-6.4C1123.4,722.8,1121.7,716.5,1124.5,711.1 M1141.1,723.2c-0.7,4.3,0.8,8.7,2,12.8
		c4.7,4.7,8.6,10.5,10.1,17.1c9.4,3.5,18.8,7.1,28.4,10.3c-3.1-3.5-5.5-8.3-4.5-13.1c0.9-4.4,5-7.2,9.1-8.2
		c6.7-1.5,13.8-0.1,20.1,2.6c5.9,2.7,11.8,6.6,15.1,12.4c1.2-2.3,1.9-4.9,2.5-7.4c-4.8-3-9.4-6.2-14-9.3
		c-17.7-10.9-36.8-20-57.2-24.5C1148.1,716.3,1142.3,718.1,1141.1,723.2z"/>
	<path stroke="#000000" stroke-width="9.375000e-002" d="M1090.3,729.1c7.8-1.5,16.1-0.4,23.2,3.4c10.4,5.3,17.7,16.2,18.6,27.9
		c1.5,13.4-5.8,27.2-17.6,33.6c-10.4,6.1-24,6.1-34.4,0.1c-9.2-5-15.8-14.5-17.5-24.8c-2.5-14.1,4.6-29.2,17.1-36.2
		C1083,731.1,1086.6,729.9,1090.3,729.1 M1087.2,735c-6.8,1.8-12.9,6.1-16.9,11.8c-4.3,5.9-5.9,13.3-6.1,20.5
		c0,7.4,3.4,14.8,9.2,19.5c8.4,6.7,19.9,10.2,30.4,7c11.8-3.2,20.9-14.3,21.9-26.5c1.3-11.5-4.8-23.4-14.8-29.2
		C1103.8,733.9,1095.1,732.8,1087.2,735z"/>
	<path stroke="#000000" stroke-width="9.375000e-002" d="M566.3,763.4c8-6.7,16.4-13,24.6-19.6c16.7,17,30.6,36.7,41.6,57.8
		c8.5,13.9,12.6,29.9,15.3,45.9c9.1,56.9-0.5,117.3-30,167c-2.9,5.3-6.4,10.1-9.9,15c1-7.8,0.9-16.1-3.3-23
		c-3.7-6.7-10.1-11.4-17-14.3c7.1-12,11.1-25.5,14.5-39c6.1-27.5,8.3-56,5.4-84C603.9,831.1,590.4,793.4,566.3,763.4z"/>
	<path stroke="#000000" stroke-width="9.375000e-002" d="M1082.2,744.9c7.6-2.5,16.4-0.7,22.5,4.5c6.6,5.5,9.7,14.9,7.7,23.3
		c-2.4,10.9-13.3,19.2-24.5,18.2c-11.7-0.5-21.8-10.9-22-22.5C1065.1,758.1,1072.3,747.9,1082.2,744.9z"/>
	<path stroke="#000000" stroke-width="9.375000e-002" d="M1678.4,764c4.2-7.5,13-11,21.3-11.6c2.7-0.1,5.7-0.8,8,0.9
		c31.7,19,57.3,48,72.5,81.7c20.2,44.4,21.5,97,3.6,142.3c-14,36.2-40,67.6-72.9,88.3c-37.9,24.3-85,33.5-129.3,25.8
		c-51.9-8.6-99.2-41-126-86.2c17.2,0,34.5,0.1,51.6,0.7c13.8,12.4,29.9,22.5,47.5,28.5c42.1,15.3,91.5,8.2,127.4-18.6
		c32.4-23.3,53.6-61.5,56.2-101.3c1.8-24.3-2.9-49.1-13.8-70.9c-18.1-37.4-54.2-65.5-94.9-73.9c16.7-0.4,32.9,5.4,47.1,13.9
		C1675.7,777.1,1675,769.9,1678.4,764z"/>
	<path stroke="#000000" stroke-width="9.375000e-002" d="M394.7,754.7c6.2,0,12.3,1.4,18.1,3.2c12.9,3.2,25.1,10.7,32.5,22
		c3.4,5.2,5.9,11,7.4,17.1c-10.5,7.1-20.5,14.9-30.2,23c-6.8,2.5-13.1,6.8-17.3,12.8c-3,3-3.7,7.4-6.6,10.4c-2.6,3-4.9,6.2-7.6,9
		c-1-8.2,0.6-16.7,4.9-23.9c3.3-5.9,8-10.8,12.9-15.3c7,1.1,14.8,1.3,20.8-3c5-3.4,7.3-9.8,6.8-15.8c-0.6-9.8-6.4-18.5-13.3-25.1
		C415,762.1,405.2,756.7,394.7,754.7z"/>
	<path stroke="#000000" stroke-width="9.375000e-002" d="M959.4,805.6c31.7-14.8,63.4-29.8,94.9-45c1.7,7.8,2.9,16,7.3,22.8
		c6.7,11.8,19.4,18.5,31.9,22.4c0.5,17.4,0.5,34.8,0.8,52.2c-22.7-5-47.4-5.1-68.5,5.5c-2.4,1.3-4.7,2.6-7.1,3.8
		c-18.2-8-37.6-16.5-49.8-33C962.8,826,959.8,815.8,959.4,805.6 M1013.4,791.9c-3.9,1.9-8.3,1.1-12.4,1.2c-0.2,4.3-4.9,5.4-8.3,6.1
		c-8.6,1.7-18,3.4-24.5,9.8c0.3,4.1,1.1,8.5-0.4,12.4c9.4,7,13.9,18.6,23.1,25.9c5.8,6.1,14.9,8.6,22.8,5.8c6.3-1.7,11.2-7.4,18-7.1
		c3,0.3,6.8,1.7,7.7,5c0.4,0.8,1.1,1.1,2.1,1.1c-2.4-4.1-5.3-8.2-9.3-11c-6.4-4.1-14.3-1.2-21.3-2.7c-3.3-0.5-5.7-3-7.5-5.6
		c-0.9-5-0.9-11.1,3.2-14.8c4.7-4.8,12.4-3.2,17.6-0.3c9.2,5.7,16.5,14.1,26.4,18.8c5.4,3.1,12.3,4.1,18.1,1.5
		c7.8-3.2,12.8-10.3,18.1-16.4c-4.1,4-9.1,6.9-14.3,9c-4,1.3-8.6,2.4-12.6,0.4c-4.5-1.9-7.2-7-6.9-11.8c-0.2-2.7,0.1-5.6,2.5-7.3
		c4.7-3.3,10.8-0.9,15.1,2.1c-3.9-4.3-8.5-8.7-14.6-9c-7.7,0.2-14.7,4-22.1,5.7c-6.2,0.4-12.2-5.3-11.8-11.6
		c-0.4-5.8,4.8-10.1,9.9-11.6c7.2-2.8,15.3-0.3,20.9,4.6c-2.8-5.2-5.8-10.6-10.1-14.8c-2.2-2.4-5.7-3-8.8-2.1
		C1025.8,779.3,1021.7,788.3,1013.4,791.9z"/>
	<path stroke="#000000" stroke-width="9.375000e-002" d="M1140.3,762.3c25,8.5,49.7,17.7,74.6,26.3c-1.5,2.7-4.4,4.2-6.2,6.6
		c-6,6.4-9.3,15.5-7.5,24.2c1.6,7.8,2,16.2-1.8,23.4c-5.2,9.8-15.3,15.4-24.9,20.1c-6.3,14.7-12.9,29.3-18.9,44.1
		c-2.1-2.2-3.3-5.1-4.9-7.6c-11.5-19.6-30.3-35.1-52.5-40.7c-0.9-17.6-0.9-35.2-1.5-52.8c9.9-0.9,20.4-3.1,28-9.9
		C1134.5,787.8,1138.4,774.7,1140.3,762.3 M1137.1,803.7c-5.6,7.1-14.8,10.4-23.6,10.9c0.1,4.3,0.2,8.6,0.3,12.9
		c9.7-9,22.7-14.8,36-14.7c6.1,0.1,12.8,1.7,17,6.5c3.4,3.8,3.9,9.6,2.1,14.3c-2.4,6.6-7.5,11.9-13.1,16c-7.1,5-15.3,8.5-24,9.5
		c2.3,2.1,5.1,3.7,7.3,6c6.6,5.7,11.6,13,16,20.4c4.3-10.2,8.7-20.3,13.1-30.4c7.1-4.1,15.7-7.9,18.9-16.2
		c3.7-7.9-1.3-16.5,1.3-24.5c1.3-5.1,5-9.1,8.6-12.8c-17.2-6.2-34.5-12.2-51.7-18.5C1144,790.2,1141.9,797.8,1137.1,803.7z"/>
	<path stroke="#000000" stroke-width="9.375000e-002" d="M1234.4,782.9c3.1-3.9,4.5-8.7,7.2-12.7c0.7,7.9,1.7,15.9,1.6,23.8
		c10,2.4,18.7,8.8,25.2,16.7c4.8,6,8.5,13,9.7,20.7c0.7,4.8,0.1,10.2-3.1,14.1c-3.6,4.4-9.9,5.5-15.2,4.5
		c-8.7-1.7-16.4-6.8-22.3-13.2c-5.8,19.4-20,34.3-33.3,48.9c-2.4,2.9-6.3,5.3-5.7,9.6c1,27.6,10,55.3,27.7,76.8
		c10,11.8,22.8,21.2,37.2,26.8c1.7,1,5.1,0.9,3.7,3.8c-5-1.3-10.5-1.9-15.2,0.6c-6.4,3.4-9.8,10.4-11.5,17.1
		c-1.5,6.9-1.8,14.1-0.7,21.1c0.7,2.1,1.2,5.5,4,5.5l-0.2,2c-23.6-0.7-48.5-4.9-67.9-19.4c-13.4-9.9-22.3-25.1-25.7-41.3
		c-5.1-23.5-1.4-48,6.5-70.4c6.8-17.2,13.7-34.4,20.5-51.6c0.4-1.5,1.9-2.1,3-2.9c8.3-5.1,16.2-11.3,21.6-19.5
		c3.9-6,5.4-13.4,4.2-20.5c-0.6-4.7-1.7-9.5-1.5-14.3c0.3-4,3.2-7.3,6.7-9C1219.4,795.6,1228.9,791.3,1234.4,782.9z"/>
	<path stroke="#000000" stroke-width="9.375000e-002" d="M315.8,812.2c11.2-4.2,23.8-3.6,35,0.1c11.3,3.3,21.6,11.6,25.4,22.9
		c2.9,8.9,4,18.3,6.9,27.2c-1.6,2.7-3.5,5.1-5.1,7.9c0.7-7.3-1.8-14.6-5.3-20.9c-3-4.2-6.5-9.1-12.1-9.6c-4.5-0.3-7.6,4-8.4,8
		c-1.9,8.7,0.9,17.6,5.2,25.1c2.7,3.7,5.6,7.9,10.3,8.9c3.1,0.9,6.5-0.7,8.1-3.4c2.4-3.9,7-5.6,10.9-7.6c0.9,1.3,1.7,2.8,2.4,4.3
		c-6.8,3.1-11.4,10.2-12.3,17.6c-8.9-0.7-17.6-4.2-24-10.5c-6.9-6.7-10.8-15.7-13.3-24.8c4.1-5.9,8-13,6.5-20.4
		c-1.1-7.3-7.9-12.4-14.8-14c-12.3-3-25.3,0.9-35.6,7.6c-5,2.9-8.9,7.2-13.3,10.9C290.5,828.9,301.5,817.4,315.8,812.2z"/>
	<path stroke="#000000" stroke-width="9.375000e-002" d="M523,813.5c0.4-0.2,1.1-0.5,1.5-0.7c-0.6,3.3,1.4,6.3,2.2,9.4
		c3.2,11,5.3,22.8,2.7,34.2c-2.9,15.1-13.7,27.6-26.5,35.3c-8.2,4.5-17.9,6.5-27,4c-10.6-3-20.1-8.9-30.9-11.3
		c1.3-1.6,2.6-3.2,3.9-4.7c6.3,2.6,12.9,5.3,19.9,4.7c4.2,0,9-1,11.7-4.6c2-2.7,1.4-6.4-0.4-9.1c-3.3-5-8.7-8.2-14.3-10.1
		c2.9-3,5.5-6.2,8.6-9.1c1.2,0.4,2.5,0.8,3.7,1.3c2.4,6.8,6,14,12.9,17.1c7,3.4,15.4,0.4,20.8-4.7c10.3-9.6,14.1-24.3,13.6-38
		C524.8,822.7,525.1,817.8,523,813.5z"/>
	<path stroke="#000000" stroke-width="9.375000e-002" d="M1626.3,829c21.6-2.2,43.9,3.6,61.4,16.5c16.4,11.8,28.6,29.3,33.8,48.8
		c5.7,20.8,3.6,43.8-6.2,63.1c-8.9,18-24,32.8-42.2,41.2c-21.6,10.3-47.4,11.1-69.7,2.4c-18.3-7-34.1-20.3-44.2-37.1
		c-12.5-20.4-16.1-46-9.9-69.1c4.9-19,16.5-36.2,32.1-48C1594.2,836.8,1610,830.7,1626.3,829 M1620.3,848.1
		c-23,2.9-43.7,18.7-52.7,40c-8.6,19.5-7.1,43.1,4,61.3c10.2,17.3,28.4,29.5,48.3,32.2c17.6,2.7,36.2-2.1,50.3-12.9
		c16-12,26.2-31.4,26.7-51.5c0.8-19.5-7.5-39.1-21.9-52.2C1660.5,851.6,1639.9,845.3,1620.3,848.1z"/>
	<path stroke="#000000" stroke-width="9.375000e-002" d="M1294.6,906.8c90.1-21.3,180.1-42.5,270.2-63.8c0.9-0.2,2.6-0.7,3.5-1
		c0,0.2,0,0.7,0,0.9c-4.2,4-9,8.4-9.9,14.5c-44.4,4.4-87.9,15-130.9,26.8c-36.6,10.2-73.1,20.7-110,29.6c-0.8-1-1.5-2.2-2.7-2.6
		C1308.5,908.3,1301.4,908.2,1294.6,906.8z"/>
	<path stroke="#000000" stroke-width="9.375000e-002" d="M1278.5,855c5.8-5.8,12.9-11,21.3-12c8.2-0.9,16.6,1.3,23.5,5.8
		c19.1,10.9,38.1,22.1,57.2,32.9c0,0.2-0.1,0.7-0.2,0.9c-7.9,3.2-16.4,4.4-24.6,6.4c-17,3.8-34.2,7.4-51.3,10.9
		c-5.3,1-10.4,2.5-15.8,3c-8-9.8-17.1-18.8-25.1-28.5C1268.2,867.5,1273,861,1278.5,855z"/>
	<path stroke="#000000" stroke-width="9.375000e-002" d="M1458.6,866.4c4.6-3.8,8.9-7.9,13.6-11.6c-1.1,3.1-2.1,6.2-3.4,9.3
		C1465.4,864.8,1462,865.6,1458.6,866.4z"/>
	<path stroke="#000000" stroke-width="9.375000e-002" d="M983.2,862.6c10.3,4.9,20.5,10.1,31.1,14.4c18.6,7.2,38.5,10.4,58.3,11.8
		c-13.6,5.6-24.9,17.1-29.1,31.4c-5.9,16.5-1.2,35.9,10.5,48.7c8.1,8.9,19.5,15,31.6,15.9c-0.9,8.1-4,17-11.5,21.1
		c-3,1.4-6,3-9.2,3.8c-10.4-1.6-19.9-6.9-27.8-13.7c-7.3-6.4-14.4-12.9-21.4-19.6c-4.4-29.2-15.2-56.8-26.2-84
		C993.1,882,987.4,871.8,983.2,862.6z"/>
	<path stroke="#000000" stroke-width="9.375000e-002" d="M396.8,867.8c5.4-0.5,11,0.2,16,2.6c-0.6,1.6-1.1,3.2-1.6,4.8
		c-3.8-2.2-8.1-3-12.4-3C397.9,870.8,397.1,869.4,396.8,867.8z"/>
	<path stroke="#000000" stroke-width="9.375000e-002" d="M1604.5,882c14.9-12.7,37.6-15.5,54.9-6.2c16.7,8.1,28.3,26,28.4,44.6
		c0.5,15.9-7.3,31.6-19.8,41.3c-15.4,12.5-38.6,14.6-55.8,4.5c-7.3-3.7-13.2-9.7-18-16.2c-1.6-2.5-2.6-5.3-4.7-7.4
		c-0.6-0.7-1-2.3-0.2-2.9c1.8,2.5,2.2,5.6,4.3,7.9c7.8,10,21.8,14.5,33.9,10.8c12.4-3.4,22-15,23-27.8c1.1-10.3-3.3-21-11.4-27.6
		c-9.5-8.2-24-9.8-35.1-4c-13.2,6.4-20.4,22.4-16.7,36.5C1581.8,916.3,1588.9,894.3,1604.5,882z"/>
	<path stroke="#000000" stroke-width="9.375000e-002" d="M395.3,875c6.1-1.4,12.8,0.2,17.6,4.1c5.4,4.3,8.4,11.4,7.6,18.3
		c-0.6,5.7-3.6,11.2-8.2,14.6c-6.4,4.9-15.7,5.5-22.7,1.5c-7.1-3.9-11.4-12.1-10.5-20.2C379.8,884.5,386.7,876.8,395.3,875
		 M395.2,881.1c-5.7,1.8-10,7.2-10.3,13.2c-0.8,7.9,5.8,15.6,13.7,16c8.8,1,17-7.1,16.1-15.9C414.5,884.9,404,877.8,395.2,881.1z"/>
	<path stroke="#000000" stroke-width="9.375000e-002" d="M1228.9,876.1c9.8-2.9,20.1-0.7,29.4,2.8c7.9,8.9,15.8,17.7,23.4,26.8
		c-7.5,2.2-14.1,6.6-20,11.6c-8.2,7.5-13.6,17.9-14.8,28.9c-1.8,13.8,2.1,27.6,7.2,40.3c-8.3-4.4-15.3-10.9-21.6-17.9
		c-18.7-20.5-30.9-48-29.4-76.1C1211,886.2,1218.8,878.9,1228.9,876.1z"/>
	<path stroke="#000000" stroke-width="9.375000e-002" d="M417,880c0.7-1.6,1.6-3.2,2.5-4.7c2.4,2.6,4.6,5.6,5.9,8.9
		c-1.6,0.3-3.3,0.5-4.9,0.8C419.5,883.2,418.3,881.5,417,880z"/>
	<path stroke="#000000" stroke-width="9.375000e-002" d="M1440.8,882.3c8.3-2.5,16.8-4.4,25.1-6.7c-1.7,8.6-2.7,17.3-2.9,26.1
		c26.4-8,53-15.4,79.5-23.1c-2.6,10-6.2,19.7-8.1,29.8c-2.2,10.8-2.2,22.3,1.4,32.8c3.8,12.3,11.2,23.1,18.8,33.3
		c-24.8-1-49.7-2-74.6-3.1c2.8,3.5,4.6,7.6,7.3,11.2c2.3,3.2,4.7,6.3,7.1,9.5c-15.3,0-30.5,0-45.8,0c-3.9-7.2-6.8-14.8-9.5-22.4
		c-5.5,0-11-0.5-16.6-0.3c-6.9-5.2-13.1-12.3-14.4-21.1c-2-11.8,3-23.3,8.4-33.5c4.3-0.9,8.3-2.5,12.6-3.4c0.4-6.1,0.5-12.2,1-18.3
		C1433.3,889.3,1436.8,885.5,1440.8,882.3 M1463.4,913.5c0.4,11.2,2.9,22.3,6.1,33c1.2,2.5,1.5,5.7,3.2,7.8
		c17.7,0.5,35.4,1.4,53.1,2c-6.9-9.2-12.6-20.1-12.6-31.9c-0.2-9.3,3.3-18,5.5-26.8C1500.4,903,1481.9,908.3,1463.4,913.5z"/>
	<path stroke="#000000" stroke-width="9.375000e-002" d="M396.3,884c7.3-2.6,15.7,3.6,15.4,11.3c0.3,7.2-7.1,13.2-14.1,11.6
		c-6.7-1.1-11.2-8.6-9.1-15C389.6,888.2,392.6,885.2,396.3,884 M398.2,886.8c-3,1.3-5.3,4.2-5.5,7.5c-0.7,4.9,3.2,9.7,8.1,10.2
		c5.6,0.9,11.2-4.5,10.3-10.2C410.6,888.3,403.6,884.3,398.2,886.8z"/>
	<path stroke="#000000" stroke-width="9.375000e-002" d="M1398.7,893.8c12.6-3.4,25.2-7.1,37.9-10.5c-12,11.5-22.5,25-28.1,40.8
		c-2.9,8.1-4.6,16.6-5.3,25.2c0.4,7.2,4.4,13.5,8.3,19.3c6.1,8.2,12.9,15.8,19.6,23.4c-12.8-0.3-25.5-0.4-38.3-0.7
		c-6.1-7.7-12.1-15.4-18.1-23.1c-5.6-6.7-9.2-15.3-9.1-24c0-7.7,2.8-15.2,6.5-21.9c5.9-9.7,13.3-18.4,21.4-26.3
		C1394.9,894.7,1396.9,894.4,1398.7,893.8z"/>
	<path stroke="#000000" stroke-width="9.375000e-002" d="M1081.4,890c17.3-4,36.4,3.5,46.8,17.8c6.6,9,10,20.4,9,31.5
		c-1.4,14.8-10.2,29-23.4,36.1c-15.8,9.3-37.1,7.7-51.3-3.9c-7.9-6.1-13.6-15-16.2-24.7c-5.7-19.9,4.5-42.8,22.8-52.2
		C1072.9,892.4,1077.2,891.3,1081.4,890 M1057.4,910c-11.1,13.4-11.1,34.4-0.1,47.9c6.6,8.5,16.9,14.1,27.6,14.9
		c17.2,1.7,34.7-9.8,39.8-26.3c-8.4,17.7-32.5,25.1-49.5,15.5c-15.1-7.6-23.3-26.4-18.4-42.6c2.3-8.5,7.9-15.8,15-20.8
		C1066.3,901.3,1061.1,905,1057.4,910 M1085.3,901.1c-6.6,1.7-12.7,5.6-16.6,11.2c-6.6,9-7.2,22-1.4,31.6
		c5.4,9.5,16.7,15.3,27.6,14.2c9.2-0.7,17.9-6.3,22.5-14.3c4.7-7.9,5.2-18,1.5-26.3C1113.4,904.9,1098.5,897.5,1085.3,901.1z"/>
	<path stroke="#000000" stroke-width="9.375000e-002" d="M326.8,892.4c6.7-2.4,14.1-2.5,20.9-0.6c9.9,2.9,19.3,7.5,29.6,8.7
		c1.9,8.2,8.6,15.4,17,17c-5.6,9.1-15.1,16-25.6,18.4c-8.9,2-18.1,0.6-26.8-1.8c-2.2-6.4-5.7-13.1-12.2-16c-5.6-2.6-12.1-1-17,2.3
		c-8.2,5.5-13.3,14.7-16,24c-2.6,10.1-3,21-0.1,31.1c-3.3-5-4.3-11.3-5.6-17c-3.4-14.8-0.8-31.1,8-43.6
		C306.1,905,315.3,896.3,326.8,892.4 M353.8,901.5c-3.8,0.4-7.8,0.6-11,2.8c-2.8,1.6-4.8,4.8-4.2,8.1c0.9,4.2,4.2,7.3,7.7,9.5
		c7.7,4.6,17.2,6,25.9,4.1c3.6-1,7.3-3.1,8.5-6.8c1-3.2-0.6-6.6-2.8-8.9C371.5,904.1,362.5,901.5,353.8,901.5z"/>
	<path stroke="#000000" stroke-width="9.375000e-002" d="M422.8,891.6c1.6-0.1,3.1-0.1,4.7-0.1c-0.2,3.9,0.2,8.4-2.2,11.7
		c-0.9-1.3-1.9-2.4-2.6-3.8C422.8,896.8,422.9,894.2,422.8,891.6z"/>
	<path stroke="#000000" stroke-width="9.375000e-002" d="M427.1,905.4c4.3-4.6,7.9-10.1,12.6-14.2c9.1,0.3,18.4,3.7,24.9,10.3
		c7.2,7.2,10.2,17.3,11.8,27.1c-3.8,4.6-7.6,9.6-8.6,15.7c-1.1,4.9,0.3,10.5,4,14c4.9,5.1,12.3,6.7,19.1,6.8
		c15.1-0.2,29.2-7.7,40.1-17.8c-2.7,4.8-6.9,8.5-10.9,12.2c-8.8,8.7-20.1,15.2-32.4,17.1c-10.8,1.7-22-0.6-31.9-5.1
		c-8.5-4.3-15.8-11.8-18-21.3c-2.9-12.1-1.5-25-6.4-36.6C430.2,910.8,428.7,908.1,427.1,905.4 M446.3,903c-3,1.2-4.8,4.2-5.8,7.1
		c-2.5,8.3-1.3,17.4,2.2,25.2c2.3,3.8,4.7,8.2,9.2,9.6c3.9,1.5,8-1.3,9.7-4.8c5.1-10.9,2.4-24.4-4.9-33.6
		C454.2,903.6,450,901.3,446.3,903z"/>
	<path stroke="#000000" stroke-width="9.375000e-002" d="M1096.9,908.6c8.4-2.1,17.8,2.7,20.9,10.8c3.1,7.3,0.7,16.5-5.7,21.3
		c-5.8,4.6-14.5,5-20.8,1c-6.1-3.7-9.5-11.4-8.2-18.4C1084.2,916.2,1089.9,910.2,1096.9,908.6z"/>
	<path stroke="#000000" stroke-width="9.375000e-002" d="M396.9,918.2c7.3,0.9,14.7-2,19.9-7.1c5.5,8.8,7.9,19.6,5.4,29.8
		c-2.4,10.4-9,19.2-16.3,26.5c-7.4-0.6-15.7,0.3-21.4,5.6c-5.4,4.8-6.8,12.9-5,19.7c2.7,11,11.2,19.7,20.9,25
		c6.6,3.7,13.9,5.8,21.4,7.1c-13.4-0.4-27.3-2.1-39-9.3c-10.8-6.3-17.9-17.5-20.8-29.5c-3.2-11.6-2.2-24.8,4.9-34.8
		C375.7,939.3,389.7,931.7,396.9,918.2 M403.2,926c-10.8,4.3-19.3,13.8-22.8,24.8c-1.2,3.9-0.7,9.5,3.7,11.1
		c4.3,1.5,8.9-0.4,12.7-2.6c8.2-5,14.5-13,17.5-22.1c1-3.5,1-7.9-1.9-10.5C409.8,924.7,406.2,925,403.2,926z"/>
	<path stroke="#000000" stroke-width="9.375000e-002" d="M1288.3,914.1c17.3-3.7,36.6,5.1,44.7,21c9.4,16.4,5,39-9.6,51
		c-12.7,11.1-32.3,13.1-46.9,4.6c-16.6-8.7-25.2-29.8-19.5-47.7C1261,928.4,1273.7,917.1,1288.3,914.1 M1290.3,931
		c-4.3,1.1-8.2,3.5-11.3,6.6c-7,7-8.8,18.3-4.6,27.3c3.5,7.5,10.9,13.1,19.2,14c8.1,1,16.7-2.3,21.8-8.7c5.8-6.9,7.2-17.1,3.6-25.3
		C1314.5,934,1301.6,927.7,1290.3,931z"/>
	<path stroke="#000000" stroke-width="9.375000e-002" d="M1287.2,937.9c9.3-3.8,20.9,1,24.7,10.3c3.4,7.5,1.3,16.9-4.9,22.3
		c-5.1,4.6-12.8,6.1-19.3,3.8c-7.2-2.4-12.5-9.4-12.9-16.9C1274.1,949.1,1279.4,940.8,1287.2,937.9z"/>
	<path stroke="#000000" stroke-width="9.375000e-002" d="M1117.7,982.9c11.4-5.3,19.3-16.1,23.8-27.6c1.1,10.7-1.3,21.8-6.6,31.2
		c-8.6,14.9-24.4,24.8-41.2,27.9c-7.1,1.3-14.7,1.4-21.5-1.2c8.9-3.9,17.4-12,17-22.5C1098.9,989.2,1108.9,987.6,1117.7,982.9z"/>
	<path stroke="#000000" stroke-width="9.375000e-002" d="M1309.7,1001.7c5.8-2.4,13.6-3.6,16.2-10.3c53,1.4,105.9,2.6,158.9,2.4
		c27.8,0.3,55.7-0.9,83.5-1.3c3.7,6.3,11.4,8.1,16.8,12.5C1493.3,1004,1401.5,1002.7,1309.7,1001.7z"/>
	<path stroke="#000000" stroke-width="9.375000e-002" d="M1403,1004.3c12.9,0.2,25.8,0.3,38.7,0.5c1.3-0.2,1.9,1.1,2.7,1.9
		c8.1,9.6,16.6,19.4,21.2,31.2c-16,0.5-32,0-48,0.3c-6,2.2-11.6,5.3-17.9,6.6c-17.7,4.3-36.1,1.7-54.1,1c8-2.1,16.5-4.1,22.8-9.8
		c5.3-4.5,8.6-10.8,11.2-17.2c6.7,0.8,13.4,2.3,20.1,2c2.8-0.2,6.4-1.2,7-4.4C1407.4,1012,1404.9,1008,1403,1004.3z"/>
	<path stroke="#000000" stroke-width="9.375000e-002" d="M1341.3,1006.1c6.9-1.7,14.7-2.2,21,1.5c3.7,2.1,5.8,6.6,5,10.8
		c-0.9,6-5.3,10.9-9.9,14.7c-7.6,5.9-17.1,9.5-26.7,9.5c-5.5-0.1-11.7-1.7-14.8-6.6c-2.8-4.6-1-10.5,1.9-14.6
		C1323.4,1013.7,1332.2,1008.6,1341.3,1006.1 M1340.2,1013.9c-5.5,1.7-10.9,4.8-14.2,9.6c-2.4,2.9-3.4,7.4-1.2,10.7
		c2.3,3.4,6.9,4.6,10.9,4.2c8.6-0.4,17.3-4.9,21.7-12.5c1.9-3.4,1.6-8.1-1.7-10.6C1351.3,1012,1345.3,1012.7,1340.2,1013.9z"/>
	<path stroke="#000000" stroke-width="9.375000e-002" d="M1272.2,1009.8c9.6-3.9,21.3-6,30.8-0.7c-10.2-2.1-21.6,2.5-27.3,11.3
		c-2.1,3.3-2.2,8.3,1,10.9c4.4,3.8,10.7,3,15.9,1.7c6.6-2.1,13.2-6.2,15.8-12.9c0,5.9-4,10.9-7.9,14.9c-8.8,8.2-20.7,13.3-32.8,13.4
		c-6,0-12.7-1.6-16.4-6.6c-3.1-4.3-2.4-10.2,0-14.6C1255.8,1019.1,1263.8,1013.4,1272.2,1009.8z"/>
</g>
</svg>
